<?xml version="1.0" encoding="utf-8"?><svg xmlns="http://www.w3.org/2000/svg" xmlns:xlink="http://www.w3.org/1999/xlink" width="1366" height="699" preserveAspectRatio="xMidYMid" viewBox="0 0 1366 699" style="z-index:1;margin-right:-2px;display:block;background-repeat-y:initial;background-repeat-x:initial;background-color:rgb(241, 242, 243);animation-play-state:paused" ><g transform="" style="animation-play-state:paused" ><linearGradient id="lg-0.6731499087274513" x1="0" x2="1" y1="0" y2="0" style="animation-play-state:paused" ><stop stop-color="#7de364" offset="0" style="animation-play-state:paused" ></stop>

  
<stop stop-color="#6be752" offset="1" style="animation-play-state:paused" ></stop></linearGradient>
<path fill="url(#lg-0.6731499087274513)" opacity="0.4" d="M 0 0 L 0 697.506 Q 136.6 638.668 273.2 623.767 T 546.4 474.738 T 819.6 431.106 T 1092.8 425.947 T 1366 368.634 L 1366 0 Z" style="opacity:0.4;animation-play-state:paused" ></path>
<path fill="url(#lg-0.6731499087274513)" opacity="0.4" d="M 0 0 L 0 664.285 Q 136.6 577.124 273.2 542.172 T 546.4 479.839 T 819.6 463.592 T 1092.8 366.348 T 1366 327.769 L 1366 0 Z" style="opacity:0.4;animation-play-state:paused" ></path>
<path fill="url(#lg-0.6731499087274513)" opacity="0.4" d="M 0 0 L 0 606.955 Q 136.6 583.391 273.2 565.397 T 546.4 525.776 T 819.6 435.46 T 1092.8 404.7 T 1366 340.348 L 1366 0 Z" style="opacity:0.4;animation-play-state:paused" ></path>
<path fill="url(#lg-0.6731499087274513)" opacity="0.4" d="M 0 0 L 0 599.513 Q 136.6 549.218 273.2 522.098 T 546.4 529.895 T 819.6 430.923 T 1092.8 310.079 T 1366 291.269 L 1366 0 Z" style="opacity:0.4;animation-play-state:paused" ></path>
<path fill="url(#lg-0.6731499087274513)" opacity="0.4" d="M 0 0 L 0 621.706 Q 136.6 637.913 273.2 597.811 T 546.4 521.674 T 819.6 453.965 T 1092.8 403.07 T 1366 282.589 L 1366 0 Z" style="opacity:0.4;animation-play-state:paused" ></path></g></svg>